<?xml version="1.0" standalone="no"?>
<!DOCTYPE svg PUBLIC "-//W3C//DTD SVG 20010904//EN"
 "http://www.w3.org/TR/2001/REC-SVG-20010904/DTD/svg10.dtd">
<svg version="1.0" xmlns="http://www.w3.org/2000/svg"
 width="832.000000pt" height="832.000000pt" viewBox="0 0 832.000000 832.000000"
 preserveAspectRatio="xMidYMid meet">
<metadata>
Created by potrace 1.14, written by Peter Selinger 2001-2017
</metadata>
<g transform="translate(0.000000,832.000000) scale(0.100000,-0.100000)"
fill="#000000" stroke="none">
<path d="M4042 8298 c-11 -13 -30 -43 -41 -68 -19 -44 -20 -44 -20 -14 -1 34
-17 54 -42 54 -26 0 -29 -20 -30 -183 -1 -341 -21 -578 -46 -553 -4 4 -8 167
-8 362 -2 376 -2 373 -47 374 -32 0 -48 -42 -50 -131 -2 -152 21 -713 32 -779
12 -68 5 -246 -10 -255 -15 -9 -21 69 -10 119 8 35 8 64 0 105 -11 54 -24 277
-38 646 -8 200 -18 235 -67 235 -41 0 -50 -35 -37 -132 7 -46 19 -193 27 -328
8 -135 19 -276 25 -315 5 -38 12 -135 15 -215 4 -80 13 -177 21 -217 16 -85
19 -203 4 -203 -14 0 -30 44 -30 83 0 18 -7 53 -14 78 -8 26 -17 89 -21 140
-4 52 -13 122 -21 157 -8 35 -14 102 -14 150 0 48 -5 103 -10 122 -6 19 -15
91 -20 160 -6 69 -17 172 -24 230 -8 58 -18 132 -21 165 -9 81 -47 119 -83 83
-15 -15 -16 -156 -2 -248 6 -36 19 -139 30 -230 11 -91 24 -181 30 -200 13
-44 13 -103 1 -95 -6 3 -13 27 -16 53 -10 83 -27 175 -40 232 -8 30 -19 98
-24 150 -16 142 -46 334 -55 348 -12 19 -64 15 -76 -7 -17 -33 -11 -132 15
-231 14 -52 30 -138 35 -191 6 -53 17 -121 25 -150 9 -30 22 -92 31 -139 8
-47 20 -105 26 -130 5 -25 12 -54 15 -65 7 -29 -66 142 -83 193 -7 24 -15 78
-18 120 -2 42 -20 142 -40 222 -19 80 -38 170 -41 200 -9 75 -22 114 -45 135
-27 24 -68 13 -76 -21 l-7 -26 -24 27 c-20 21 -32 25 -61 23 -35 -3 -37 -5
-40 -44 -2 -28 11 -81 43 -174 43 -126 55 -190 36 -190 -17 0 -79 146 -101
240 -27 114 -42 146 -71 153 -29 8 -72 -15 -98 -51 -21 -30 -74 -154 -106
-252 l-19 -55 -13 50 c-18 69 -43 115 -75 138 -23 17 -32 19 -52 9 -38 -17
-41 -46 -11 -100 24 -42 105 -233 187 -442 16 -41 45 -105 65 -142 19 -37 33
-73 31 -79 -6 -17 -40 41 -110 181 -31 63 -66 131 -76 150 -11 19 -39 88 -63
153 -33 92 -50 124 -76 147 -40 36 -44 36 -68 10 -17 -19 -18 -26 -7 -68 7
-26 28 -72 46 -102 19 -30 98 -188 176 -350 79 -162 153 -311 166 -330 27 -39
32 -90 10 -90 -19 0 -85 120 -127 230 -32 84 -296 618 -320 646 -15 18 -63 18
-79 -1 -19 -23 -6 -66 58 -183 215 -392 268 -491 304 -574 23 -51 53 -111 68
-133 31 -46 63 -105 56 -105 -11 0 -192 311 -265 455 -130 258 -229 437 -258
467 -33 34 -60 36 -74 4 -17 -37 -3 -86 39 -143 35 -45 149 -246 335 -588 36
-66 104 -187 151 -270 47 -82 86 -159 86 -170 l-1 -20 -15 20 c-9 11 -34 52
-56 90 -22 39 -62 102 -89 141 -26 39 -63 104 -82 145 -51 112 -366 661 -394
687 -26 24 -67 29 -79 10 -21 -34 -2 -81 99 -240 119 -187 154 -247 262 -448
43 -80 83 -152 90 -160 7 -8 43 -63 79 -123 49 -80 60 -103 42 -92 -31 20
-319 430 -350 498 -14 28 -87 155 -163 281 -128 213 -141 231 -185 255 -37 21
-51 24 -65 15 -29 -18 -27 -51 5 -88 16 -18 44 -60 62 -92 19 -32 64 -104 101
-160 37 -56 95 -152 129 -215 33 -63 73 -127 89 -144 38 -41 142 -195 131
-195 -13 0 -103 118 -161 210 -28 47 -81 123 -117 170 -82 107 -231 317 -254
359 -14 26 -23 31 -52 31 -37 0 -56 -20 -56 -59 0 -16 -8 -20 -37 -23 -35 -3
-38 -6 -41 -35 -4 -36 1 -44 115 -197 45 -61 80 -112 78 -115 -10 -9 -59 34
-103 92 -73 96 -133 157 -154 157 -10 0 -24 -11 -30 -25 -11 -25 -41 -34 -53
-15 -6 10 -127 50 -151 50 -22 0 -54 -38 -54 -64 0 -14 15 -59 34 -100 19 -41
37 -84 41 -96 l7 -21 -33 20 c-24 15 -37 17 -51 10 -22 -12 -23 -31 -3 -69
l15 -30 -34 16 c-86 41 -107 -46 -24 -98 53 -33 72 -51 273 -263 88 -93 207
-216 265 -273 l105 -104 -95 79 c-120 100 -140 113 -166 113 -31 0 -37 -27
-14 -60 25 -35 236 -224 298 -266 51 -35 122 -104 106 -104 -5 0 -54 36 -108
80 -96 78 -129 93 -154 68 -32 -32 2 -81 97 -143 74 -47 173 -134 154 -135 -7
0 -30 15 -50 33 -58 51 -141 111 -353 257 -208 142 -312 225 -453 358 -113
108 -203 148 -236 108 -25 -30 22 -87 108 -131 18 -9 61 -42 95 -74 33 -31 97
-84 141 -117 44 -34 87 -69 94 -78 8 -10 117 -87 242 -172 125 -85 233 -162
241 -171 30 -37 -47 0 -130 61 -46 35 -154 105 -240 157 -195 115 -366 235
-453 316 -36 34 -78 67 -93 73 -46 17 -88 -20 -67 -59 22 -41 182 -169 348
-279 119 -79 142 -95 143 -104 0 -17 -34 -5 -121 42 -98 53 -132 76 -219 151
-100 85 -187 113 -211 67 -14 -26 -1 -39 125 -128 129 -92 162 -114 195 -132
41 -22 32 -38 -21 -38 -24 0 -55 -9 -75 -21 -44 -27 -58 -23 -196 55 -141 80
-150 83 -176 57 -12 -12 -21 -25 -21 -30 0 -10 64 -61 77 -61 4 0 19 -10 33
-21 l25 -21 -50 6 c-27 4 -78 20 -113 36 -73 34 -117 37 -150 11 -53 -40 -8
-171 98 -284 34 -37 61 -70 58 -73 -3 -2 -17 0 -32 5 -32 13 -53 5 -62 -21
-14 -47 72 -92 430 -222 98 -36 182 -68 185 -72 10 -9 -50 7 -99 27 -25 10
-104 34 -175 53 -72 19 -179 53 -239 75 -60 23 -117 41 -128 41 -30 0 -58 -19
-58 -39 0 -30 41 -58 135 -91 50 -18 126 -45 170 -61 44 -16 93 -29 108 -29
16 0 74 -15 130 -34 146 -48 361 -100 380 -93 23 9 21 50 -2 71 -11 10 -46 26
-78 36 -32 10 -51 19 -42 19 27 2 162 -37 219 -63 l55 -25 -47 0 c-39 -1 -48
-5 -54 -23 -9 -31 41 -74 97 -83 24 -4 51 -11 59 -16 31 -17 -20 -9 -182 31
-294 73 -255 61 -717 215 -107 36 -207 65 -222 65 -37 0 -54 -29 -38 -64 13
-28 2 -23 287 -117 106 -34 196 -67 199 -72 3 -5 -3 -7 -13 -4 -30 9 -426 108
-455 114 -52 10 -80 -57 -39 -95 11 -10 46 -25 78 -31 31 -7 201 -48 377 -91
176 -43 367 -87 425 -99 107 -21 278 -69 249 -70 -34 -2 -228 29 -299 48 -41
10 -124 28 -185 40 -224 43 -273 54 -410 88 -213 53 -241 58 -270 45 -19 -9
-25 -19 -25 -42 0 -51 15 -56 390 -134 261 -55 549 -111 664 -128 52 -7 91
-18 94 -25 6 -19 -48 -16 -187 11 -90 18 -131 22 -155 15 -27 -7 -44 -4 -88
16 -37 17 -93 30 -171 40 -155 19 -223 31 -342 62 -120 31 -178 35 -201 11
-37 -37 20 -98 91 -98 12 0 58 -9 101 -20 125 -32 443 -80 514 -77 49 1 76 -4
110 -20 l45 -21 -50 -1 c-27 0 -108 8 -180 19 -71 11 -180 25 -241 30 -61 5
-140 16 -174 25 -78 20 -110 11 -110 -33 0 -50 43 -62 335 -97 72 -9 134 -20
139 -25 8 -8 -38 -21 -79 -21 -53 0 -275 22 -310 30 -53 14 -191 14 -216 1
-25 -14 -24 -52 1 -75 15 -14 45 -20 116 -26 94 -7 120 -14 93 -24 -8 -2 -73
-25 -145 -49 -73 -25 -158 -58 -190 -73 -55 -26 -59 -31 -62 -65 -4 -42 23
-68 73 -68 16 0 50 -6 75 -14 42 -13 45 -16 42 -45 -3 -30 0 -33 55 -58 51
-24 73 -28 185 -31 100 -3 139 -1 178 12 48 16 54 15 133 -5 45 -11 83 -22 85
-23 1 -2 -131 -2 -294 -2 -322 2 -324 2 -324 -53 0 -15 5 -32 12 -39 16 -16
185 -16 261 -1 47 10 67 9 124 -6 44 -11 125 -20 228 -23 120 -4 150 -8 120
-14 -47 -9 -440 -22 -604 -19 -88 1 -119 -2 -137 -14 -28 -18 -31 -46 -6 -67
23 -20 202 -30 347 -19 61 4 137 5 170 2 53 -5 39 -8 -107 -20 -91 -8 -206
-11 -254 -8 -94 5 -139 -4 -155 -34 -23 -44 14 -76 101 -86 58 -7 295 10 575
42 231 26 357 32 300 14 -16 -5 -102 -16 -190 -24 -88 -8 -191 -19 -230 -25
-38 -5 -124 -14 -190 -20 -66 -6 -143 -17 -172 -25 -28 -8 -81 -15 -117 -15
-58 0 -70 -3 -91 -25 -45 -44 -25 -93 42 -102 37 -5 40 -7 27 -20 -21 -22 -18
-80 5 -93 30 -16 98 -12 191 9 47 11 137 25 200 30 63 6 130 13 147 17 19 4
33 2 33 -3 0 -6 -50 -15 -111 -21 -68 -7 -128 -19 -157 -32 -29 -13 -78 -23
-127 -26 -111 -7 -124 -11 -137 -39 -9 -19 -7 -29 6 -50 14 -22 23 -25 73 -25
31 0 124 15 207 34 190 43 285 60 293 52 18 -17 -166 -68 -333 -91 -145 -20
-245 -46 -258 -67 -16 -26 4 -71 36 -82 22 -8 68 0 210 34 209 49 202 48 206
35 2 -5 -27 -17 -65 -26 -37 -9 -105 -28 -151 -42 -46 -15 -93 -27 -105 -27
-35 0 -67 -28 -67 -59 0 -60 51 -66 180 -20 120 42 130 44 130 26 0 -11 -15
-20 -42 -27 -175 -46 -198 -57 -198 -96 0 -21 8 -29 40 -41 48 -19 47 -35 -3
-45 -56 -12 -135 -55 -142 -79 -9 -26 25 -65 69 -78 17 -5 70 -12 119 -16 l87
-7 -25 -20 c-14 -11 -25 -30 -25 -43 0 -30 39 -58 65 -48 15 5 14 2 -4 -16
-38 -38 -3 -98 51 -87 36 7 344 171 433 230 39 26 122 83 185 126 108 75 209
125 234 117 13 -4 -278 -200 -469 -315 -77 -46 -148 -91 -158 -100 -10 -9 -55
-35 -100 -57 -96 -47 -120 -79 -93 -121 12 -18 25 -24 51 -24 38 0 72 19 190
106 39 29 97 67 130 85 33 18 96 61 140 96 48 38 99 69 127 78 50 15 107 51
283 179 140 102 213 146 242 146 37 0 27 -14 -34 -52 -32 -19 -233 -149 -448
-290 -214 -140 -427 -276 -472 -302 -65 -38 -83 -53 -83 -70 0 -23 28 -56 48
-56 26 0 251 132 417 244 204 138 205 139 205 132 0 -3 -27 -23 -59 -45 -33
-22 -102 -76 -154 -120 -53 -43 -135 -103 -184 -132 -186 -111 -233 -147 -233
-177 0 -32 16 -52 42 -52 50 0 237 119 443 280 163 128 310 230 330 230 19 0
-4 -25 -53 -58 -32 -22 -97 -75 -144 -119 -89 -81 -342 -267 -433 -318 -119
-67 -160 -121 -119 -155 31 -26 70 -15 161 46 230 156 381 272 469 363 51 52
96 93 99 89 10 -10 -293 -313 -346 -346 -25 -16 -74 -56 -110 -89 -35 -33 -83
-72 -107 -87 -39 -25 -43 -30 -40 -63 8 -100 91 -60 311 146 59 56 111 101
117 101 24 0 5 -23 -62 -77 -40 -31 -115 -93 -165 -137 -76 -66 -93 -85 -93
-108 0 -20 7 -32 24 -40 28 -12 51 -1 125 60 43 36 54 28 22 -16 -22 -31 -135
-256 -145 -289 -11 -35 24 -63 78 -63 37 0 52 7 93 40 26 21 127 100 224 175
97 74 184 144 194 155 19 21 35 26 35 11 0 -5 -35 -47 -77 -94 -121 -132 -146
-158 -206 -215 -58 -55 -65 -69 -47 -103 34 -62 158 38 335 271 40 52 96 118
125 145 28 28 101 112 162 188 60 75 112 137 115 137 5 0 -27 -55 -68 -115
-15 -22 -58 -76 -96 -120 -38 -44 -91 -109 -118 -145 -27 -36 -117 -134 -201
-218 -157 -158 -190 -206 -164 -237 7 -8 26 -15 43 -15 35 0 59 23 224 215
212 248 239 281 373 455 73 96 153 196 177 223 24 26 50 62 58 80 7 17 35 49
62 70 26 21 68 62 93 91 84 100 78 75 -13 -52 -102 -142 -204 -274 -317 -407
-42 -49 -105 -128 -142 -175 -90 -116 -242 -292 -359 -415 -106 -111 -121
-140 -95 -180 19 -28 42 -32 73 -10 36 26 146 144 188 203 22 31 81 100 131
152 50 52 119 134 153 183 35 48 83 104 108 125 24 20 53 54 64 74 10 20 47
69 82 110 35 40 92 116 127 168 70 106 131 183 137 176 7 -6 -16 -45 -52 -91
-17 -22 -53 -76 -80 -120 -72 -116 -313 -450 -430 -595 -56 -69 -128 -161
-160 -205 -32 -44 -86 -108 -121 -142 -68 -66 -79 -96 -46 -126 43 -39 82 -15
175 106 34 45 89 117 123 159 34 42 89 116 122 165 207 308 212 314 212 274 0
-32 -50 -125 -130 -242 -186 -274 -269 -391 -313 -443 -51 -59 -59 -98 -25
-120 38 -23 69 4 163 144 50 74 119 173 153 219 34 46 81 115 103 153 22 38
46 67 52 65 7 -2 15 -33 19 -70 3 -36 9 -74 12 -85 5 -16 2 -19 -16 -15 -35 7
-35 7 -250 -311 -54 -79 -98 -152 -98 -163 0 -25 30 -53 56 -53 37 0 63 31
130 153 37 67 92 159 122 205 30 45 58 99 62 120 l8 37 1 -47 c1 -40 -12 -73
-90 -230 -51 -101 -109 -207 -130 -237 -40 -55 -47 -87 -29 -122 24 -44 80 -9
130 81 27 51 29 52 24 20 -4 -19 -20 -86 -36 -149 -24 -96 -27 -118 -18 -147
30 -91 135 -80 187 20 24 46 162 212 238 286 l67 65 -7 -45 c-4 -25 -20 -69
-36 -99 -31 -58 -38 -121 -15 -140 23 -19 64 6 77 48 7 20 27 64 46 99 18 35
33 71 33 79 0 9 3 14 6 10 3 -3 -8 -54 -24 -114 -53 -187 -52 -213 8 -213 42
0 58 28 86 146 14 60 39 161 56 224 17 63 42 162 55 220 14 58 36 141 49 185
21 72 23 75 18 30 -3 -27 -21 -113 -39 -190 -18 -77 -36 -158 -40 -180 -10
-61 -42 -178 -81 -297 -28 -85 -33 -111 -24 -127 24 -45 77 -44 101 1 7 13 25
70 40 128 30 115 35 101 18 -47 -10 -89 -9 -98 7 -110 41 -30 59 -18 103 76
26 54 46 114 51 152 5 35 20 132 34 214 13 83 27 173 31 200 3 28 22 120 40
205 18 85 50 242 69 349 20 107 39 197 42 200 3 3 3 -13 0 -34 -3 -22 -13
-111 -22 -199 -14 -146 -14 -160 0 -175 25 -25 50 -2 59 55 21 123 21 124 25
66 2 -29 -4 -91 -13 -137 -8 -46 -20 -149 -25 -229 -5 -80 -11 -150 -14 -154
-2 -4 -12 -86 -21 -182 -16 -170 -28 -246 -60 -360 -27 -97 -17 -140 32 -140
27 0 61 48 67 95 2 17 11 80 20 140 24 170 34 264 51 475 9 107 18 196 20 199
3 2 12 -13 21 -35 15 -34 15 -47 4 -99 -22 -100 -29 -156 -29 -240 -1 -81 -22
-288 -43 -427 -10 -68 -9 -80 6 -102 18 -28 47 -34 64 -14 14 18 23 65 37 188
l13 105 1 -126 c1 -138 13 -174 48 -153 21 13 30 48 32 119 2 82 16 83 31 3
20 -117 48 -196 72 -209 51 -27 111 -1 143 61 7 14 15 59 18 102 3 42 11 87
19 100 12 21 13 19 16 -32 4 -85 9 -100 36 -100 13 0 28 6 34 13 17 20 35 145
28 194 -8 61 5 433 16 433 4 0 8 -33 8 -73 0 -40 7 -157 15 -260 11 -134 13
-204 6 -248 -11 -65 -5 -94 27 -122 32 -29 59 -8 68 50 9 61 -2 328 -21 508
-8 77 -15 168 -15 203 0 35 -5 95 -11 133 -6 39 -8 83 -4 97 7 25 9 23 21 -23
8 -27 14 -83 14 -123 0 -41 9 -146 19 -235 11 -89 25 -227 31 -307 16 -202 26
-278 40 -295 19 -23 48 -18 66 10 14 22 16 41 10 128 -9 120 -1 125 13 10 6
-45 17 -98 25 -118 13 -31 20 -36 43 -33 21 2 33 13 47 41 17 35 17 48 7 160
-6 67 -22 187 -35 267 -46 274 -85 685 -67 703 10 10 16 -15 26 -118 4 -33 19
-124 35 -202 16 -78 34 -191 40 -250 22 -208 62 -478 73 -503 17 -36 61 -39
83 -5 15 24 15 32 0 133 -10 59 -26 166 -36 239 -21 142 -72 391 -89 436 -6
16 -11 56 -11 91 0 34 -6 85 -14 112 -8 27 -17 74 -20 105 -3 30 -15 81 -26
114 -23 67 -23 65 -11 65 18 0 51 -102 61 -191 12 -111 34 -193 62 -232 13
-18 24 -56 30 -105 5 -42 14 -97 19 -122 13 -58 45 -275 54 -365 9 -102 36
-248 47 -263 6 -6 21 -12 33 -12 46 0 58 44 44 165 -12 103 -77 494 -84 506
-3 4 -1 10 4 14 19 11 41 -42 55 -135 46 -289 56 -368 56 -434 0 -83 22 -126
65 -126 67 0 84 110 41 260 -14 47 -30 116 -36 154 -6 37 -17 94 -24 126 -14
60 -13 70 10 70 16 0 57 -125 79 -245 39 -213 45 -235 71 -251 22 -15 26 -15
49 0 33 22 32 47 -6 219 -29 127 -32 173 -9 137 5 -8 18 -51 30 -95 11 -44 29
-102 38 -130 l17 -50 50 0 c48 0 52 -2 110 -64 65 -68 100 -91 140 -91 43 0
57 51 59 207 0 72 4 135 9 139 4 4 20 -5 35 -19 35 -33 55 -34 80 -2 16 20 25
23 54 19 39 -7 99 19 132 55 15 17 18 30 13 73 l-7 52 31 -37 c35 -42 61 -47
83 -15 33 46 21 80 -120 357 -170 332 -301 561 -366 636 -54 63 -98 140 -77
133 13 -4 94 -113 147 -196 107 -171 155 -254 172 -300 11 -29 38 -76 59 -105
21 -29 64 -103 96 -165 64 -126 135 -228 167 -238 14 -4 27 1 41 15 l21 21
-32 66 c-18 36 -57 105 -86 154 -30 49 -59 113 -66 142 -8 34 -24 66 -45 88
-17 19 -41 49 -52 65 -33 50 -93 168 -88 173 9 9 56 -41 83 -88 14 -25 67
-115 117 -200 51 -85 112 -193 136 -239 53 -100 80 -131 113 -131 32 0 58 35
49 69 -6 25 -110 205 -219 382 -59 95 -66 116 -34 99 11 -6 34 -39 51 -73 17
-34 62 -103 99 -153 38 -50 80 -114 94 -142 32 -64 58 -80 92 -57 32 21 31 49
-6 121 -16 32 -30 63 -30 69 0 5 28 -19 63 -53 65 -65 79 -70 134 -50 32 12
39 10 114 -30 83 -45 102 -47 134 -12 14 16 15 24 7 47 -6 15 -29 75 -50 133
-22 58 -43 113 -47 124 -7 16 -6 17 13 7 45 -24 72 -9 72 41 0 17 4 19 26 14
34 -9 64 17 64 56 0 24 -18 48 -93 122 -133 134 -187 156 -187 79 0 -34 8 -45
85 -118 79 -74 101 -105 75 -105 -6 0 -36 28 -68 62 -31 35 -90 96 -129 137
-40 41 -73 75 -73 76 0 0 18 -1 39 -3 32 -3 41 0 50 17 15 28 -7 71 -51 102
-18 13 -73 60 -121 106 -48 46 -92 83 -97 83 -12 0 -54 60 -46 67 3 3 43 -30
88 -74 46 -43 102 -91 125 -106 23 -14 54 -42 69 -62 15 -20 91 -89 169 -155
78 -65 147 -126 154 -134 19 -22 48 -20 62 5 16 31 -32 103 -111 164 -36 27
-87 73 -115 101 -55 55 -165 157 -235 218 -44 38 -44 38 -5 11 99 -70 339
-269 431 -357 58 -56 109 -98 120 -98 28 0 44 19 44 51 0 21 -25 51 -127 146
-71 66 -171 151 -223 190 -52 38 -131 107 -175 152 -44 45 -111 105 -150 133
-38 28 -101 81 -140 119 -38 37 -95 85 -126 106 -31 21 -85 69 -120 108 -77
84 -40 60 86 -55 50 -45 144 -123 210 -173 136 -103 335 -263 437 -352 38 -33
95 -81 126 -107 69 -56 93 -80 141 -136 60 -71 145 -87 165 -30 13 38 0 70
-37 94 -44 29 -581 473 -585 485 -5 12 25 12 32 0 10 -16 148 -116 201 -146
28 -15 70 -47 95 -71 75 -70 253 -204 272 -204 21 0 58 34 58 54 0 15 -42 55
-223 210 -70 61 -127 114 -127 119 0 14 43 -4 87 -37 123 -92 205 -160 224
-186 31 -41 104 -78 126 -64 50 31 14 96 -90 162 -88 55 -169 121 -162 132 7
11 50 -7 150 -65 106 -60 197 -87 305 -88 104 -2 150 13 207 66 70 64 59 92
-57 144 -36 16 -78 44 -93 62 -25 31 -26 34 -12 61 8 16 15 41 15 55 0 24 -13
33 -152 99 -84 41 -191 88 -238 106 -118 44 -164 90 -60 59 21 -7 50 -9 65 -5
33 8 48 45 28 68 -13 14 -125 54 -206 72 -15 4 -42 20 -60 37 -31 29 -31 30
-7 25 14 -3 59 -13 100 -22 41 -9 129 -36 195 -61 66 -25 165 -58 221 -73 56
-15 113 -35 127 -45 28 -18 68 -15 94 7 17 13 17 73 1 86 -22 17 -169 62 -242
73 -38 6 -126 33 -195 59 -69 26 -153 53 -186 60 -90 18 -215 62 -215 75 0 23
53 25 82 5 14 -11 95 -40 180 -64 84 -25 200 -61 257 -81 125 -42 232 -65 301
-65 44 0 52 3 62 25 23 51 -15 71 -265 135 -106 28 -235 61 -287 75 -52 14
-196 49 -319 79 -171 42 -229 60 -245 77 -21 21 -21 21 -1 16 11 -3 65 -21
120 -40 55 -20 156 -47 225 -61 218 -46 313 -64 380 -76 36 -6 101 -22 145
-35 99 -30 222 -58 253 -57 61 0 84 78 33 108 l-30 18 25 29 c13 15 24 39 24
53 0 40 -40 57 -162 65 -63 5 -150 19 -206 35 -53 14 -155 37 -227 50 -71 14
-148 30 -170 35 -22 6 -82 17 -134 24 -123 17 -150 40 -36 31 44 -4 99 -11
122 -16 23 -6 85 -15 138 -21 54 -6 136 -22 184 -36 124 -37 147 -41 257 -52
54 -6 125 -13 157 -17 47 -6 61 -4 77 11 22 20 26 55 9 86 -8 16 -7 30 6 61
14 37 14 43 0 64 -8 13 -25 26 -38 29 -59 13 -238 44 -289 50 -61 8 -80 25
-27 25 16 0 60 -6 97 -14 90 -19 258 -29 281 -16 31 16 34 41 9 68 l-23 24 35
26 c81 62 100 87 100 135 0 28 -6 49 -15 57 -9 7 -66 29 -127 49 -61 20 -113
42 -115 47 -2 6 16 19 41 28 60 23 73 39 56 71 -11 20 -10 27 9 51 25 32 27
66 5 88 -18 19 -134 22 -229 6 -33 -6 -126 -15 -207 -20 -81 -6 -193 -17 -250
-25 -57 -8 -161 -14 -233 -13 -117 1 -123 2 -60 8 188 20 347 42 410 56 44 10
157 19 303 24 244 9 273 15 284 57 8 29 -9 62 -36 73 -36 13 -38 24 -11 50 45
42 23 110 -36 110 -22 0 -162 -26 -364 -67 -44 -9 -116 -19 -160 -23 -44 -5
-159 -22 -255 -38 -96 -17 -240 -36 -319 -41 -140 -10 -193 -8 -115 4 22 3 91
17 154 31 63 14 160 29 215 34 169 15 254 48 229 88 -15 24 -124 28 -239 8
-49 -9 -155 -25 -235 -36 -80 -11 -170 -27 -200 -35 -66 -18 -70 -18 -70 -4 0
16 100 58 177 74 37 8 106 15 153 15 116 1 215 15 313 44 45 14 134 37 197 51
188 42 423 106 448 121 34 22 27 74 -12 93 -26 12 -36 11 -105 -14 -42 -15
-114 -38 -161 -51 -47 -13 -125 -38 -175 -54 -49 -17 -100 -30 -113 -30 -21 0
-20 2 12 30 24 21 51 34 88 40 180 30 295 67 432 139 99 51 124 77 106 110
-15 29 -30 27 -134 -20 -114 -52 -248 -99 -281 -99 -45 0 -28 30 33 57 149 66
206 95 274 141 88 60 101 74 101 113 0 51 -38 79 -124 90 -95 11 -167 28 -175
41 -4 5 10 23 30 40 24 19 36 38 36 54 0 35 -17 64 -39 64 -10 0 -78 -29 -152
-64 -139 -67 -189 -85 -189 -69 0 6 55 36 123 68 146 69 194 99 213 136 17 35
17 34 -2 53 -24 24 -64 19 -114 -15 -60 -40 -413 -250 -469 -279 -72 -36 -123
-52 -135 -40 -6 6 6 16 37 30 26 12 89 51 141 88 52 37 159 110 237 162 150
100 229 164 229 186 0 21 -30 44 -58 44 -19 0 -98 -52 -271 -179 -222 -163
-369 -255 -459 -288 -32 -12 -62 -9 -62 7 0 11 79 67 207 146 221 136 565 402
571 441 2 11 -4 28 -13 37 -40 39 -127 3 -182 -77 -15 -22 -46 -52 -68 -66
-42 -27 -210 -150 -319 -233 -49 -38 -180 -121 -366 -232 -9 -5 -7 0 5 14 11
12 66 54 123 92 56 38 133 97 170 132 37 34 112 97 167 139 286 220 333 260
361 312 17 33 17 35 -1 54 -34 38 -61 27 -154 -62 -82 -80 -239 -210 -416
-344 -44 -33 -89 -70 -100 -83 -11 -12 -29 -26 -40 -32 -32 -16 69 84 200 199
66 58 186 173 268 256 114 117 147 156 147 177 0 34 -17 50 -53 50 -23 0 -59
-30 -196 -162 -288 -279 -463 -442 -531 -493 -36 -27 -120 -105 -186 -172 -67
-68 -125 -123 -129 -123 -7 0 451 474 585 605 40 39 118 124 173 190 56 66
124 144 150 173 42 46 48 58 45 90 -2 30 -7 38 -27 40 -28 4 -120 -82 -229
-213 -156 -188 -293 -327 -308 -312 -6 6 78 120 181 247 61 75 246 342 257
372 4 9 0 25 -8 37 -33 47 -77 17 -146 -101 -29 -50 -74 -113 -99 -139 -26
-27 -67 -79 -92 -116 -43 -64 -157 -187 -157 -169 0 4 18 43 41 87 31 60 52
87 88 113 30 21 60 55 80 91 18 31 54 85 80 119 62 79 121 172 121 191 0 8 -9
15 -20 15 -11 0 -20 -3 -20 -8 0 -4 -31 -43 -70 -87 -38 -43 -80 -98 -92 -122
-13 -24 -26 -43 -30 -43 -16 0 -7 29 16 57 26 31 104 160 142 235 31 61 31
108 1 136 -13 12 -33 22 -44 22 -33 0 -86 -26 -133 -65 -46 -38 -80 -60 -80
-50 0 12 23 50 51 85 40 50 47 93 19 113 -29 20 -59 10 -79 -26 -20 -38 -210
-295 -268 -364 -68 -80 -90 -67 -29 17 18 25 55 84 82 131 26 46 74 123 105
171 64 98 81 154 53 175 -10 7 -22 13 -26 13 -17 0 -53 -48 -137 -185 -47 -77
-109 -174 -137 -215 -27 -41 -63 -97 -79 -125 -16 -27 -30 -44 -33 -37 -2 7
24 63 59 125 35 62 84 150 109 197 26 47 77 133 113 191 37 58 67 115 67 127
0 25 -50 55 -75 46 -9 -4 -28 -30 -42 -58 -14 -28 -41 -74 -59 -103 -18 -28
-56 -96 -85 -150 -64 -121 -133 -237 -217 -367 -36 -55 -72 -116 -80 -135 -10
-23 -17 -30 -19 -20 -2 8 33 84 78 169 45 84 117 229 160 323 43 93 94 190
113 214 57 73 93 150 80 170 -15 25 -57 28 -76 6 -26 -29 -114 -186 -187 -333
-37 -74 -87 -166 -110 -204 -24 -38 -47 -80 -52 -94 -5 -14 -12 -22 -15 -19
-4 3 7 30 24 59 16 29 35 71 42 93 12 37 111 222 216 406 61 104 58 159 -8
159 -29 0 -63 -30 -74 -64 -10 -31 -96 -178 -101 -172 -3 2 19 50 47 105 28
55 50 108 48 118 -6 31 -52 28 -77 -4 -57 -74 -60 -74 -26 -6 49 101 45 133
-14 133 -30 0 -59 -41 -151 -221 -49 -96 -90 -166 -90 -155 0 10 36 93 80 185
44 91 80 171 80 177 0 6 -9 19 -19 28 -31 28 -56 12 -82 -52 -12 -31 -35 -75
-49 -97 -15 -22 -41 -67 -58 -100 -17 -33 -37 -69 -46 -80 -15 -20 -15 -20
-16 5 0 25 42 131 112 282 40 86 43 113 13 124 -47 18 -88 -29 -119 -136 -19
-63 -31 -86 -39 -73 -12 19 24 151 63 230 22 45 40 96 40 113 0 40 -36 77 -85
86 -33 6 -44 1 -106 -41 -38 -26 -92 -67 -118 -91 -27 -24 -51 -41 -53 -38 -3
2 -3 24 -1 48 5 37 2 46 -16 55 -31 17 -63 -19 -89 -100 -46 -143 -92 -329
-101 -404 -24 -206 -62 -372 -90 -389 -17 -11 -14 68 4 111 8 19 26 99 39 177
14 77 32 173 40 211 9 39 16 83 16 98 0 55 32 183 56 226 40 72 27 116 -33
109 -21 -2 -32 -12 -45 -38 -23 -49 -101 -436 -148 -745 -25 -161 -43 -231
-67 -257 -22 -25 -30 -23 -37 12 -4 20 10 91 40 208 24 97 54 240 65 317 24
171 54 309 85 393 32 85 32 139 -1 154 -19 8 -28 8 -40 -2 -33 -27 -101 -290
-125 -483 -6 -47 -17 -102 -25 -123 -15 -38 -15 -36 -11 66 5 119 55 376 86
448 28 62 36 127 20 147 -17 20 -63 19 -83 -2 -19 -22 -50 -181 -72 -364 -9
-74 -20 -150 -25 -169 -16 -58 -3 241 16 367 15 105 15 115 0 138 -10 16 -26
25 -42 25 -58 0 -83 -143 -84 -467 0 -124 -5 -205 -15 -255 -9 -40 -18 -116
-21 -168 -6 -113 -11 -143 -24 -135 -19 12 -22 102 -6 253 9 87 16 221 16 299
0 78 5 222 11 319 l11 176 -23 24 c-27 29 -40 30 -67 7 -18 -16 -22 -39 -33
-208 -8 -104 -14 -271 -14 -370 0 -99 -2 -272 -4 -385 l-4 -205 -7 150 c-9
178 -6 729 5 867 9 110 -4 148 -49 148 -45 0 -58 -30 -55 -127 2 -48 3 -197 1
-331 -1 -190 -5 -243 -14 -240 -8 3 -16 32 -20 69 -52 462 -52 460 -40 544 7
44 12 91 12 102 0 30 -26 53 -60 53 -39 0 -54 -29 -46 -89 l6 -46 -20 54 c-27
74 -35 81 -89 81 -36 0 -53 -5 -69 -22z m-875 -310 c-3 -8 -6 -5 -6 6 -1 11 2
17 5 13 3 -3 4 -12 1 -19z m52 -184 c22 -87 43 -186 46 -219 l6 -60 -36 40
c-32 35 -36 44 -31 77 4 21 0 75 -8 120 -19 107 -30 215 -23 207 4 -3 24 -77
46 -165z m2221 60 c0 -3 -18 -43 -40 -87 -55 -114 -70 -179 -80 -357 -12 -209
-19 -264 -41 -337 -18 -59 -81 -156 -128 -198 -26 -23 -115 -178 -165 -290
-40 -87 -56 -105 -95 -105 -34 0 -161 46 -179 64 -13 13 -11 20 20 55 19 22
49 71 67 108 59 122 88 158 192 239 124 96 215 192 246 260 20 44 25 78 33
206 5 85 16 177 25 208 21 70 114 240 132 240 7 0 13 -3 13 -6z m-1372 -131
c-1 -178 2 -356 13 -732 9 -353 8 -364 -43 -389 -15 -7 -66 -16 -113 -19 l-85
-6 0 51 c0 46 11 105 70 367 29 127 57 293 80 464 17 122 69 391 76 391 1 0 2
-57 2 -127z m-1164 -9 c3 -9 6 -29 6 -45 0 -61 63 -208 141 -326 35 -55 14
-37 -36 29 -26 35 -60 88 -75 118 -43 86 -76 240 -51 240 5 0 12 -7 15 -16z
m1295 -424 c10 -249 3 -606 -10 -560 -4 14 -7 239 -6 500 1 261 2 437 4 390 1
-47 7 -195 12 -330z m538 83 c-3 -10 -5 -4 -5 12 0 17 2 24 5 18 2 -7 2 -21 0
-30z m-12 -78 c-4 -25 -9 -44 -12 -41 -2 2 -1 25 2 51 4 25 9 44 12 41 2 -2 1
-25 -2 -51z m682 -97 c-2 -46 -14 -112 -25 -148 -21 -63 -169 -327 -236 -419
-45 -62 -59 -90 -65 -130 -7 -40 -28 -43 -23 -3 7 51 69 158 224 384 25 37 55
91 66 121 25 65 52 193 52 242 0 19 3 35 6 35 4 0 4 -37 1 -82z m-1100 -204
c1 -264 -7 -277 -26 -39 -18 221 -14 301 13 292 8 -3 11 -78 13 -253z m-1236
125 c44 -66 87 -142 95 -167 9 -31 14 -95 14 -187 0 -147 13 -225 49 -305 11
-25 21 -50 21 -57 0 -7 -31 -30 -70 -53 -66 -39 -71 -40 -98 -26 -28 14 -65
78 -93 161 -24 70 -19 310 10 436 l24 106 -21 91 c-22 90 -26 122 -17 122 2 0
41 -54 86 -121z m1636 99 c-3 -8 -6 -5 -6 6 -1 11 2 17 5 13 3 -3 4 -12 1 -19z
m-1466 -144 c25 -51 33 -84 45 -195 7 -74 17 -153 20 -176 4 -28 3 -43 -4 -43
-12 0 -19 46 -26 180 -6 112 -34 212 -82 291 -19 31 -34 60 -34 65 0 15 51
-62 81 -122z m363 -99 c25 -185 29 -220 21 -213 -10 9 -44 249 -44 303 1 56 6
36 23 -90z m2139 -15 c-20 -44 -38 -78 -40 -76 -5 5 64 156 71 156 2 0 -12
-36 -31 -80z m-3827 -126 c82 -55 316 -212 519 -348 204 -136 385 -262 404
-281 33 -32 34 -34 18 -58 -16 -25 -131 -107 -150 -107 -11 0 -97 82 -482 460
-143 141 -307 292 -365 337 -58 44 -116 93 -130 108 l-25 29 31 -20 c17 -10
98 -64 180 -120z m3540 101 c-3 -9 -47 -82 -98 -163 -50 -81 -107 -183 -126
-227 -29 -71 -52 -111 -52 -93 0 18 46 150 65 188 13 25 47 77 77 116 29 39
69 99 88 132 19 34 39 62 44 62 4 0 5 -7 2 -15z m-2036 -235 c22 -149 23 -177
9 -141 -11 28 -35 180 -43 271 -9 104 11 28 34 -130z m2212 18 c-77 -156 -121
-226 -123 -192 -2 34 2 49 22 69 10 12 38 57 62 100 54 99 101 174 106 169 2
-1 -28 -67 -67 -146z m848 137 c0 -2 -69 -87 -153 -187 -84 -101 -179 -217
-211 -258 -33 -41 -94 -113 -136 -160 -41 -47 -110 -128 -153 -181 -42 -54
-84 -100 -93 -103 -19 -7 -214 169 -214 194 0 24 52 69 180 153 63 41 239 168
390 281 256 191 390 281 390 261z m-707 -112 c-45 -98 -138 -263 -149 -263 -2
0 14 37 37 83 73 145 160 285 112 180z m-364 -104 c-34 -57 -73 -135 -86 -174
-23 -70 -43 -103 -43 -74 0 51 81 224 146 312 58 79 49 48 -17 -64z m-959
-233 c41 -2 107 -13 145 -25 39 -11 105 -27 148 -35 49 -10 110 -31 165 -59
48 -24 119 -56 158 -71 39 -15 93 -41 120 -58 102 -64 361 -264 418 -323 69
-70 168 -197 216 -275 18 -30 55 -84 81 -120 44 -61 137 -236 153 -288 7 -20
5 -22 -17 -17 -43 11 -50 -19 -22 -107 12 -42 30 -121 40 -175 26 -151 49
-235 68 -247 37 -23 47 50 26 185 -16 104 -5 106 19 4 24 -105 37 -257 34
-405 -2 -131 -7 -153 -30 -146 -47 15 -70 -60 -72 -227 0 -34 -8 -78 -20 -105
-10 -26 -31 -93 -45 -148 -13 -56 -43 -146 -66 -200 -23 -55 -42 -110 -43
-124 -1 -31 28 -38 56 -13 26 22 -24 -71 -86 -160 -38 -56 -41 -58 -74 -52
-30 6 -39 1 -85 -40 -76 -67 -76 -67 -101 -105 -22 -35 -46 -45 -53 -24 -2 6
34 49 79 95 52 52 103 116 134 169 28 47 76 125 107 174 60 94 77 146 57 171
-17 20 -43 19 -62 -2 -8 -10 -33 -59 -55 -109 -53 -122 -103 -194 -181 -262
-35 -31 -88 -77 -116 -102 -28 -25 -69 -59 -91 -75 -22 -16 -71 -55 -110 -86
-38 -31 -93 -69 -122 -84 -57 -30 -68 -47 -53 -76 17 -31 60 -23 140 26 41 24
79 45 85 45 18 0 -80 -92 -120 -112 -22 -11 -93 -57 -158 -101 -64 -44 -120
-77 -123 -74 -3 3 12 17 34 31 53 33 58 44 35 67 -18 19 -20 19 -84 1 -85 -24
-133 -52 -137 -81 -6 -36 17 -54 61 -48 48 7 42 0 -25 -27 -59 -24 -79 -47
-62 -73 22 -34 93 -21 214 40 l110 55 -19 -37 c-11 -20 -32 -43 -47 -50 -60
-27 -202 -80 -259 -96 -33 -10 -73 -24 -89 -32 -59 -30 -274 -64 -447 -70
-272 -9 -417 12 -721 108 -193 60 -338 133 -555 281 -224 152 -484 461 -628
748 -29 58 -92 212 -135 330 -12 34 -57 239 -70 324 -12 75 2 489 21 620 22
161 103 406 185 566 121 237 199 348 367 525 89 94 130 128 278 227 200 134
322 195 534 269 126 43 178 55 320 75 169 23 266 25 575 10z m-2317 -159 c40
-54 42 -63 8 -37 -18 14 -49 47 -69 75 l-37 50 37 -28 c20 -16 47 -43 61 -60z
m187 -24 c38 -43 133 -133 248 -235 42 -37 53 -58 30 -58 -14 0 -338 319 -338
332 0 19 21 5 60 -39z m3893 -46 c-58 -80 -185 -247 -188 -247 -2 0 2 14 8 31
17 44 196 281 208 273 5 -3 -7 -29 -28 -57z m-166 -44 c-24 -32 -69 -92 -99
-133 -53 -71 -104 -130 -113 -130 -21 0 -2 33 65 111 44 52 104 122 133 156
28 34 53 60 55 58 2 -2 -16 -29 -41 -62z m-3722 -103 c3 -5 1 -10 -4 -10 -6 0
-11 5 -11 10 0 6 2 10 4 10 3 0 8 -4 11 -10z m3876 -48 c-11 -22 -43 -64 -70
-94 -28 -30 -71 -88 -96 -129 -57 -93 -59 -78 -2 23 43 75 176 252 184 244 3
-2 -5 -22 -16 -44z m-3725 -107 c27 -36 30 -45 11 -45 -17 0 -65 52 -108 115
l-33 50 52 -44 c29 -24 64 -58 78 -76z m-105 -87 c29 -40 2 -37 -40 4 -30 30
-72 97 -71 115 1 9 78 -75 111 -119z m-876 48 c28 -7 78 -25 113 -40 34 -14
88 -37 120 -51 116 -49 168 -58 337 -60 177 -2 218 -13 255 -65 27 -38 25 -51
-12 -118 -53 -97 -48 -94 -157 -87 -164 11 -232 37 -412 160 -75 52 -130 80
-185 98 -44 14 -105 35 -138 47 -47 17 -88 22 -215 25 -153 4 -386 27 -398 39
-4 3 26 6 65 6 39 0 104 7 144 16 201 42 392 55 483 30z m6004 -190 c-2 -2
-31 -11 -65 -20 -33 -9 -127 -49 -208 -90 -230 -117 -243 -120 -486 -121 -237
-1 -245 -3 -418 -101 -81 -45 -108 -55 -120 -47 -23 14 -82 129 -82 160 0 58
159 153 290 174 101 15 291 6 415 -21 145 -31 266 -23 418 30 91 32 126 40
186 40 41 0 72 -2 70 -4z m-5599 -302 c36 -13 58 -23 49 -23 -23 -1 -132 37
-144 51 -7 8 -5 9 10 3 11 -5 49 -19 85 -31z m-109 -78 c35 -13 102 -31 149
-39 47 -9 94 -18 105 -20 11 -3 -16 -5 -60 -6 -60 0 -96 5 -147 23 -67 24
-208 110 -208 127 0 5 22 -7 49 -26 26 -19 77 -46 112 -59z m5479 70 c-19 -19
-166 -82 -211 -90 -18 -4 19 15 84 43 65 27 121 52 124 55 4 3 9 6 12 6 3 0
-1 -6 -9 -14z m-5257 -23 c-7 -2 -19 -2 -25 0 -7 3 -2 5 12 5 14 0 19 -2 13
-5z m90 0 c-13 -2 -33 -2 -45 0 -13 2 -3 4 22 4 25 0 35 -2 23 -4z m4794 -10
c6 -16 -40 -25 -182 -33 -148 -8 -213 -24 -338 -83 -65 -30 -90 -38 -99 -29
-26 26 56 78 187 118 74 22 118 28 250 34 182 7 178 7 182 -7z m-300 -128
c-117 -24 -175 -49 -256 -114 -32 -25 -41 -29 -32 -14 13 25 73 73 121 98 53
28 119 43 180 43 l55 0 -68 -13z m467 -45 c-5 -5 -54 -23 -109 -39 -126 -36
-138 -39 -265 -61 -122 -21 -194 -46 -270 -95 -62 -40 -68 -41 -77 -18 -5 11
5 27 32 50 67 58 221 104 406 123 63 6 146 19 184 30 81 21 114 25 99 10z
m-5210 -24 c29 -13 59 -17 125 -14 71 2 86 0 86 -12 0 -11 -15 -16 -61 -18
-63 -3 -150 21 -190 54 -21 17 -16 16 40 -10z m-149 -240 c64 -18 40 -19 -50
-2 -50 10 -60 14 -35 15 19 0 58 -6 85 -13z m6070 -56 c-337 -70 -909 -142
-1109 -139 -88 1 -89 2 -36 10 30 4 109 13 175 18 67 6 204 24 305 40 102 16
228 32 280 36 80 5 182 19 275 39 11 2 49 4 85 4 60 0 62 -1 25 -8z m-5768
-162 c-5 -119 -15 -161 -41 -171 -8 -3 -169 -11 -358 -17 -189 -6 -415 -16
-503 -22 -293 -19 -348 -21 -341 -9 4 5 23 13 44 16 104 17 212 45 501 131
174 52 368 105 431 119 63 13 140 33 170 44 30 11 66 20 79 20 l24 1 -6 -112z
m4473 -114 c41 -8 115 -26 164 -40 99 -27 145 -35 356 -64 80 -11 235 -43 345
-69 110 -27 261 -59 335 -71 74 -12 140 -25 147 -27 65 -25 -122 -31 -322 -11
-113 12 -176 13 -340 7 -38 -1 -218 3 -400 10 -240 9 -336 9 -353 1 -14 -6
-26 -9 -28 -7 -7 6 -21 271 -16 285 3 8 11 10 21 7 9 -4 50 -13 91 -21z m1185
-15 c-49 -4 -128 -7 -175 -6 l-85 1 75 6 c41 4 120 6 175 7 l100 0 -90 -8z
m-5712 -184 c5 -22 -319 -25 -828 -8 l-290 10 467 0 c258 0 471 3 475 7 11 10
173 2 176 -9z m-43 -125 c0 -12 -154 -12 -220 -1 -34 7 -13 9 88 10 82 1 132
-3 132 -9z m-303 -7 c-20 -2 -52 -2 -70 0 -17 2 0 4 38 4 39 0 53 -2 32 -4z
m4848 -34 c63 4 171 -10 154 -19 -17 -10 -237 -16 -246 -7 -3 4 -3 13 1 22 4
12 12 14 28 9 13 -5 41 -7 63 -5z m563 -26 c-21 -2 -57 -2 -80 0 -24 2 -7 4
37 4 44 0 63 -2 43 -4z m115 -10 c-13 -2 -35 -2 -50 0 -16 2 -5 4 22 4 28 0
40 -2 28 -4z m-958 -164 c-9 -51 -18 -95 -22 -99 -10 -9 5 143 18 180 20 55
22 19 4 -81z m285 79 c41 -5 134 -13 205 -18 108 -7 94 -7 -85 -3 -118 3 -218
7 -222 10 -5 2 -8 11 -8 20 0 11 5 13 18 8 9 -5 51 -12 92 -17z m1195 -153
c83 -14 170 -32 195 -40 l45 -15 -85 5 c-106 7 -329 39 -452 65 l-93 20 120
-5 c66 -3 188 -16 270 -30z m-1114 9 c-63 -19 -201 -30 -201 -16 0 18 50 25
210 29 35 1 35 1 -9 -13z m-4467 -134 c13 -47 37 -115 54 -152 18 -37 32 -74
32 -82 0 -50 -139 -104 -297 -117 -62 -4 -147 -17 -190 -28 -114 -30 -277 -94
-320 -127 -98 -74 -315 -269 -378 -339 -38 -43 -71 -73 -73 -67 -5 15 236 318
309 388 111 105 189 152 362 217 177 67 266 137 347 274 60 103 79 124 107
121 23 -3 27 -12 47 -88z m4394 -100 c84 -23 190 -74 276 -133 72 -49 172
-144 163 -154 -4 -4 -31 16 -60 44 -97 95 -296 205 -405 224 -34 6 -69 17 -79
25 -17 12 -16 13 7 14 14 0 58 -9 98 -20z m-4845 -21 c-6 -6 -35 -14 -64 -19
-30 -4 -97 -17 -149 -28 -205 -44 -882 -119 -840 -93 34 21 149 42 278 52 168
11 369 35 482 55 67 12 198 31 295 43 5 0 4 -4 -2 -10z m4828 -79 c124 -54
244 -135 347 -233 163 -154 217 -202 265 -235 52 -35 56 -62 6 -36 -17 8 -94
74 -172 146 -247 229 -310 274 -470 338 -85 34 -120 60 -82 60 10 0 57 -18
106 -40z m-92 -171 c56 -27 102 -68 296 -259 127 -125 250 -240 275 -256 63
-42 135 -71 237 -95 103 -23 116 -28 251 -87 56 -24 102 -48 102 -53 0 -14
-14 -11 -67 12 -99 43 -192 70 -348 100 -235 45 -319 82 -444 193 -167 149
-360 243 -512 251 -77 5 -84 10 -59 45 12 16 34 59 50 94 16 36 40 72 52 81
32 22 85 14 167 -26z m-4207 -39 c-13 -11 -74 -36 -135 -56 -96 -31 -132 -37
-252 -44 -154 -10 -190 -17 -261 -57 -26 -15 -45 -22 -41 -16 3 5 35 24 71 42
68 33 168 51 291 51 71 0 180 28 268 69 73 34 91 38 59 11z m38 -86 c0 -3 -28
-18 -62 -34 -101 -47 -210 -71 -338 -75 l-115 -4 85 10 c175 19 258 37 336 72
83 37 94 40 94 31z m4773 -238 c86 -68 169 -104 300 -132 125 -27 207 -56 233
-85 22 -25 19 -24 -68 10 -40 16 -109 37 -153 46 -44 8 -108 25 -142 36 -110
36 -265 152 -333 249 -21 31 -17 29 39 -20 34 -30 91 -77 124 -104z m-4763
129 c-65 -38 -349 -109 -366 -92 -3 2 34 12 80 21 47 9 131 32 188 50 115 38
135 42 98 21z m252 -142 c43 -46 88 -113 88 -131 0 -7 -31 -45 -68 -85 -37
-40 -97 -110 -132 -157 -36 -47 -96 -118 -133 -159 -74 -79 -257 -311 -315
-398 -31 -47 -62 -69 -62 -44 0 8 153 262 242 401 48 76 173 306 210 387 35
79 118 223 127 223 4 0 23 -17 43 -37z m3575 -130 c26 -38 61 -84 78 -104 16
-21 41 -57 54 -80 22 -40 22 -42 3 -24 -34 33 -222 259 -222 268 0 4 9 7 19 7
13 0 37 -24 68 -67z m6 -203 c34 -41 123 -145 197 -230 204 -233 293 -348 233
-299 -70 58 -563 637 -563 661 0 17 62 -45 133 -132z m-4733 106 c0 -2 -26
-19 -57 -38 -32 -19 -70 -42 -85 -52 -16 -10 -28 -16 -28 -13 0 5 159 107 167
107 2 0 3 -2 3 -4z m4690 -221 c64 -66 131 -140 150 -165 40 -52 120 -146 240
-280 47 -52 102 -118 123 -146 22 -28 79 -88 129 -134 95 -87 172 -182 166
-201 -2 -6 -24 12 -48 42 -25 29 -88 96 -140 149 -100 101 -371 400 -461 510
-29 36 -117 130 -195 210 -129 131 -185 206 -167 224 3 3 24 -16 47 -42 22
-26 92 -101 156 -167z m-3400 155 c-6 -12 -63 -76 -127 -143 -64 -67 -158
-171 -208 -232 -110 -131 -187 -207 -112 -110 117 151 445 521 454 511 3 -2
-1 -14 -7 -26z m3115 -36 c21 -8 389 -419 598 -668 62 -73 141 -152 213 -212
99 -82 129 -114 109 -114 -3 0 -52 38 -110 83 -58 46 -151 112 -208 147 -56
35 -141 91 -189 125 -48 33 -124 86 -170 118 -46 32 -179 121 -295 197 -117
77 -213 144 -213 150 0 5 17 20 38 33 20 13 53 42 72 63 70 77 107 96 155 78z
m-3005 -12 c0 -23 -343 -402 -383 -424 -11 -5 0 10 24 33 38 39 187 212 302
353 36 43 57 57 57 38z m-1760 -97 c0 -8 -131 -77 -137 -72 -3 3 26 22 63 41
76 39 74 38 74 31z m2222 -173 c83 -40 87 -53 66 -178 -21 -125 -52 -186 -142
-284 -87 -94 -125 -166 -157 -290 -19 -73 -20 -97 -13 -175 4 -49 8 -132 8
-183 -1 -89 -3 -97 -44 -180 -23 -48 -49 -102 -58 -120 -21 -44 -29 -31 -9 15
20 47 57 193 57 226 0 14 -15 97 -34 184 -19 87 -38 196 -41 243 l-7 85 49 95
c27 52 72 132 100 178 75 121 112 216 122 315 8 83 16 111 29 105 4 -2 37 -18
74 -36z m205 -189 c-3 -10 -5 -2 -5 17 0 19 2 27 5 18 2 -10 2 -26 0 -35z
m1601 23 c31 -16 110 -127 144 -201 19 -43 23 -74 29 -225 9 -244 18 -266 219
-485 63 -69 93 -113 131 -190 27 -55 49 -106 49 -114 0 -9 -22 19 -49 60 -57
87 -101 121 -235 183 -180 84 -247 175 -285 388 -36 203 -71 279 -191 414 -44
49 -80 92 -80 95 0 10 191 87 218 88 13 1 35 -5 50 -13z m-1458 -23 c0 -26
-67 -186 -116 -274 -25 -46 -72 -119 -104 -161 -32 -42 -70 -97 -85 -122 -32
-54 -52 -61 -30 -10 18 43 42 79 116 169 53 65 119 183 119 213 0 8 15 50 34
95 19 45 37 90 40 100 7 21 26 14 26 -10z m1897 -40 c38 -84 83 -226 83 -259
0 -15 -6 -24 -15 -24 -10 0 -15 10 -15 33 -1 34 -27 115 -79 236 -36 85 -35
81 -17 81 7 0 27 -30 43 -67z m-2057 -40 c-6 -26 -27 -77 -45 -113 -49 -94
-45 -41 5 61 22 46 40 90 40 98 0 8 3 12 6 8 3 -3 1 -28 -6 -54z m246 -38
c-25 -91 -36 -112 -65 -139 -32 -29 -26 -4 19 81 22 42 40 80 40 84 0 14 20
62 25 58 2 -3 -6 -40 -19 -84z m-1136 61 c0 -2 -8 -10 -17 -17 -16 -13 -17
-12 -4 4 13 16 21 21 21 13z m1553 -5 c26 -4 53 -13 60 -20 8 -8 14 -86 20
-244 11 -354 16 -1079 7 -1022 -4 28 -15 70 -24 94 -31 85 -96 397 -121 586
-9 66 -29 172 -45 235 -16 63 -41 169 -55 235 -24 113 -25 121 -8 132 19 14
93 16 166 4z m440 -53 c14 -12 15 -18 1 -68 -7 -30 -14 -80 -14 -112 0 -83
-21 -258 -31 -258 -5 0 -9 101 -9 225 0 210 1 225 18 225 10 0 26 -6 35 -12z
m-251 -528 c-2 -272 -5 -544 -4 -605 0 -69 -2 -99 -7 -79 -10 39 -1 1225 9
1199 4 -12 5 -243 2 -515z m98 -274 c-12 -12 -14 561 -2 694 5 56 8 -44 10
-299 1 -250 -1 -388 -8 -395z m-2320 741 c0 -2 -12 -14 -27 -28 l-28 -24 24
28 c23 25 31 32 31 24z m3406 -282 c16 -78 57 -171 104 -240 37 -54 21 -59
-27 -9 -41 43 -75 108 -97 186 -16 56 -46 243 -45 283 0 26 46 -128 65 -220z
m-3528 140 c-40 -47 -77 -85 -82 -85 -5 0 -1 10 10 23 24 29 138 147 142 147
1 0 -30 -38 -70 -85z m3972 -195 c36 -69 91 -168 122 -220 79 -135 185 -349
193 -390 l6 -35 -25 40 c-14 22 -44 78 -67 125 -68 139 -160 302 -201 354 -21
27 -38 55 -38 63 0 8 -20 52 -45 97 -50 93 -52 99 -28 94 9 -2 44 -55 83 -128z
m-2701 48 c-18 -35 -43 -88 -56 -118 l-24 -55 7 50 c7 57 35 118 72 158 14 15
27 27 29 27 2 0 -11 -28 -28 -62z m488 49 c-19 -49 -62 -232 -83 -350 -14 -78
-30 -160 -36 -182 -5 -22 -23 -115 -38 -206 -19 -116 -35 -183 -54 -220 -26
-54 -27 -51 -8 51 6 30 21 118 32 195 12 77 33 181 45 230 13 50 27 117 30
150 4 33 15 83 25 110 11 28 31 92 46 143 15 50 31 92 37 92 5 0 7 -6 4 -13z
m1689 -125 c41 -122 82 -193 180 -309 83 -98 142 -185 174 -257 33 -72 83
-236 75 -244 -10 -10 -16 6 -36 84 -26 103 -70 179 -196 337 -167 209 -209
277 -239 392 -18 65 -17 77 2 73 9 -2 25 -32 40 -76z m-1837 -56 c-6 -25 -9
-51 -6 -59 2 -7 -9 -37 -25 -67 -16 -30 -26 -46 -23 -35 10 32 55 205 55 212
0 3 2 4 5 1 3 -3 1 -26 -6 -52z m-163 -208 c-19 -73 -38 -149 -42 -168 -3 -19
-19 -69 -35 -110 -16 -41 -29 -88 -29 -105 0 -16 -12 -57 -26 -90 l-25 -60 5
55 c2 30 16 82 30 116 35 85 92 288 110 388 8 47 20 95 27 108 25 47 20 -5
-15 -134z m1328 -160 c14 -112 27 -246 30 -298 l5 -95 -19 95 c-22 112 -47
317 -54 450 -8 150 10 76 38 -152z m-679 -340 c3 -18 -1 -69 -9 -113 l-14 -80
-1 113 c-1 108 11 149 24 80z"/>
<path d="M5053 5569 c-163 -21 -293 -78 -413 -182 -143 -123 -206 -237 -255
-457 -23 -105 -30 -353 -16 -560 14 -208 23 -234 93 -268 52 -25 71 -50 66
-90 -3 -24 -9 -27 -63 -37 -67 -13 -102 -29 -159 -74 -64 -51 -102 -44 -242
45 -45 29 -90 55 -101 58 -11 4 -28 15 -37 25 -16 17 -16 22 -2 56 30 70 11
125 -41 125 -43 0 -113 -126 -113 -203 0 -49 33 -87 173 -198 133 -105 157
-135 157 -199 0 -17 5 -40 10 -51 24 -44 93 -6 106 59 8 41 29 59 49 42 8 -7
15 -22 15 -34 0 -28 36 -86 54 -86 30 0 58 36 67 85 11 59 32 80 90 89 34 5
53 18 105 71 35 36 69 65 77 65 23 0 95 58 112 89 18 35 20 123 4 154 -6 12
-38 49 -70 82 -32 33 -68 82 -79 108 -20 45 -21 59 -15 185 8 154 24 230 68
316 57 107 95 110 181 13 31 -35 79 -77 108 -93 46 -25 63 -29 128 -29 70 1
80 4 155 46 86 48 121 88 131 149 10 62 16 66 68 40 62 -30 69 -46 45 -100
-20 -45 -18 -74 6 -84 24 -9 168 44 193 71 16 17 22 36 22 69 0 87 -43 131
-225 232 -150 83 -203 96 -380 90 -113 -4 -150 -9 -190 -26 -95 -40 -107 -29
-36 34 66 59 101 74 171 74 64 0 87 8 133 46 33 28 61 20 71 -20 9 -36 37 -48
76 -35 23 9 38 9 56 0 14 -6 42 -8 63 -5 27 4 53 -1 99 -20 93 -39 122 -32
122 29 0 26 -12 44 -67 97 -75 71 -152 120 -258 163 -131 53 -187 61 -312 44z
m55 -581 c17 -17 15 -38 -5 -60 -30 -34 -103 -16 -103 25 0 33 19 47 60 47 20
0 41 -5 48 -12z"/>
<path d="M3135 5563 c-187 -26 -423 -139 -557 -265 -33 -31 -37 -72 -9 -88 15
-8 41 0 126 40 58 27 128 56 154 64 26 8 66 23 89 35 51 26 69 26 107 1 24
-16 47 -20 117 -20 93 0 118 -5 118 -24 0 -17 35 -47 93 -80 26 -15 47 -29 47
-31 0 -2 -51 -3 -112 -2 -175 3 -373 -35 -488 -93 -75 -38 -119 -76 -137 -117
-12 -30 -12 -38 3 -69 20 -42 81 -94 110 -94 20 0 44 35 44 64 0 20 43 55 78
62 31 6 32 6 32 -30 0 -51 20 -85 83 -143 54 -49 108 -73 163 -73 16 0 54 -12
84 -26 40 -19 75 -27 130 -30 41 -1 98 -6 125 -9 48 -6 58 -3 155 47 172 88
181 122 71 276 -42 59 -86 109 -108 123 -20 13 -31 25 -25 27 18 6 113 -50
152 -89 105 -108 140 -151 140 -175 0 -41 18 -64 49 -64 49 0 56 20 54 153
l-3 119 -38 62 c-22 33 -51 84 -65 112 -38 75 -160 185 -261 234 -163 80 -379
123 -521 103z m109 -559 c20 -19 21 -48 2 -63 -24 -20 -75 -16 -98 7 -20 20
-20 22 -4 46 19 30 75 36 100 10z m406 -69 c10 -12 5 -25 -34 -73 -50 -60
-111 -112 -133 -112 -17 0 -16 7 6 44 10 17 22 42 26 56 14 49 37 89 53 93 36
10 70 6 82 -8z"/>
<path d="M5906 4518 c-9 -42 -16 -160 -22 -361 -7 -207 -3 -227 37 -227 35 0
44 66 41 315 -1 127 -6 244 -10 260 -10 37 -39 46 -46 13z"/>
<path d="M6014 4364 c-4 -15 -4 -79 -1 -143 6 -108 5 -123 -24 -231 -49 -185
-49 -240 2 -240 24 0 31 17 60 160 27 130 39 423 19 460 -16 29 -48 26 -56 -6z"/>
<path d="M5748 3923 c-9 -10 -26 -54 -38 -98 -12 -44 -31 -97 -41 -117 -31
-61 -20 -98 27 -98 47 0 101 115 111 232 8 89 -20 125 -59 81z"/>
<path d="M5845 3803 c-56 -145 -106 -263 -116 -269 -5 -3 -9 -18 -9 -34 0 -20
6 -31 21 -35 36 -12 72 39 134 184 49 117 56 140 53 190 -3 49 -6 56 -25 59
-18 3 -26 -9 -58 -95z"/>
<path d="M3975 3443 c-103 -54 -216 -87 -276 -81 -29 3 -37 9 -56 50 -24 51
-56 68 -91 49 -31 -17 -71 -155 -58 -204 6 -26 43 -47 81 -47 13 0 39 -13 57
-29 50 -43 91 -61 178 -76 129 -23 211 -52 330 -120 25 -14 56 -25 69 -25 13
0 66 -15 117 -32 127 -45 163 -30 179 74 5 32 14 42 77 82 39 25 87 49 107 52
20 3 56 19 81 35 25 15 74 35 109 43 67 16 98 36 113 76 13 35 -15 102 -59
141 l-36 31 -47 -50 c-26 -28 -59 -54 -74 -58 -51 -12 -139 17 -211 71 -16 12
-50 33 -75 46 -42 22 -56 23 -230 24 l-185 1 -100 -53z m168 -248 c88 -17 251
-19 312 -5 22 5 44 5 48 1 5 -5 -13 -14 -41 -20 -27 -5 -72 -19 -101 -31 -81
-31 -137 -25 -288 32 -106 39 -72 50 70 23z"/>
<path d="M5397 3201 c-42 -43 -77 -83 -77 -89 0 -27 14 -42 39 -42 21 0 43 16
88 63 79 82 90 103 67 128 -9 10 -22 19 -29 19 -6 0 -46 -35 -88 -79z"/>
<path d="M4111 2875 c-112 -32 -145 -60 -121 -105 14 -26 46 -26 128 0 70 22
200 27 233 10 10 -6 30 -33 44 -61 46 -90 128 -104 169 -28 18 34 18 36 1 72
-32 69 -145 113 -312 122 -62 4 -104 1 -142 -10z"/>
<path d="M1150 6875 c-19 -23 0 -53 110 -164 88 -89 284 -251 338 -280 26 -14
52 -1 52 27 0 24 -126 158 -240 255 -58 49 -116 103 -129 119 -23 29 -75 58
-104 58 -8 0 -20 -7 -27 -15z"/>
<path d="M1062 6788 c-24 -24 -13 -63 31 -104 56 -53 170 -152 215 -186 40
-31 73 -36 92 -13 23 27 1 60 -99 144 -55 46 -110 98 -123 117 -34 49 -89 69
-116 42z"/>
<path d="M1428 6449 c-10 -5 -18 -17 -18 -25 0 -15 -1 -15 112 -104 83 -66
111 -72 116 -28 4 35 -64 105 -137 142 -58 30 -51 28 -73 15z"/>
<path d="M752 6198 c-28 -28 -11 -47 111 -122 67 -41 134 -78 150 -81 33 -9
57 8 57 40 0 24 -34 51 -135 105 -33 18 -69 41 -81 51 -23 21 -84 25 -102 7z"/>
<path d="M7823 5120 c-39 -17 -191 -48 -353 -71 -74 -10 -105 -35 -91 -72 8
-21 13 -22 122 -19 63 2 171 12 241 23 178 26 239 61 208 119 -11 20 -48 40
-73 40 -7 0 -31 -9 -54 -20z"/>
<path d="M356 4794 c-21 -20 -20 -37 2 -57 23 -21 76 -22 96 -1 21 20 20 30
-4 54 -24 24 -72 26 -94 4z"/>
<path d="M7472 3138 c-17 -17 -15 -42 6 -61 25 -22 285 -137 326 -144 29 -4
37 -1 51 21 34 51 -6 89 -141 135 -32 11 -79 29 -104 40 -50 23 -120 27 -138
9z"/>
<path d="M3677 1408 c-8 -13 -24 -95 -37 -183 -12 -88 -33 -200 -47 -250 -14
-49 -25 -106 -25 -125 0 -53 -18 -195 -35 -283 -15 -73 -15 -78 2 -97 24 -26
51 -25 69 2 8 13 24 79 36 148 11 69 34 200 50 291 17 91 34 208 40 260 23
214 23 228 10 244 -18 22 -47 18 -63 -7z"/>
</g>
</svg>
